# xmcd
# 
# Track frame offsets:
#     187
#     19197
#     35230
#     51565
#     64275
#     78485
#     94307
#     115752
#     135182
#     154982
#     173955
#     192497
# 
# Disc length: 2870
# 
# Revision: 0
# Processed by: cddbd v1.5.2PL0 Copyright (c) Steve Scherf et al.
# Submitted via: fre:ac v1.0.31
# 
DISCID=ac0b340c
DTITLE=IRUKA - 1974-1979 BEST SELECTION
DYEAR=0
DGENRE=Folk
TTITLE0=あの頃のぼくは
TTITLE1=風にのせて
TTITLE2=なごり雪
TTITLE3=星の長距離電話
TTITLE4=気晴らしドライブ
TTITLE5=雨の物語
TTITLE6=しあわせ
TTITLE7=君は悲しみの
TTITLE8=鳥の記憶
TTITLE9=サラダの国から来た娘
TTITLE10=仔犬のシロ
TTITLE11=いつか冷たい雨が
EXTD=
EXTT0=
EXTT1=
EXTT2=
EXTT3=
EXTT4=
EXTT5=
EXTT6=
EXTT7=
EXTT8=
EXTT9=
EXTT10=
EXTT11=
PLAYORDER=
